<?xml version="1.0" standalone="no"?>
<!DOCTYPE svg PUBLIC "-//W3C//DTD SVG 20010904//EN"
 "http://www.w3.org/TR/2001/REC-SVG-20010904/DTD/svg10.dtd">
<svg version="1.0" xmlns="http://www.w3.org/2000/svg"
 width="500.000000pt" height="500.000000pt" viewBox="0 0 500.000000 500.000000"
 preserveAspectRatio="xMidYMid meet">
<metadata>
Created by potrace 1.14, written by Peter Selinger 2001-2017
</metadata>
<g transform="translate(0.000000,500.000000) scale(0.100000,-0.100000)"
fill="#000000" stroke="none">
<path d="M4217 4504 c-1 -1 -78 -5 -172 -9 -286 -12 -243 1 -417 -124 -260
-188 -391 -283 -484 -352 -49 -36 -162 -118 -251 -183 -90 -65 -163 -120 -163
-122 0 -2 175 -4 390 -4 l390 0 27 26 c16 14 55 49 88 77 33 29 80 70 105 92
66 59 65 58 96 85 103 89 180 156 189 166 5 5 44 39 85 75 41 35 77 66 80 69
3 3 41 36 85 75 44 38 95 83 113 100 l32 30 -96 0 c-52 0 -96 -1 -97 -1z"/>
<path d="M88 3652 c-14 -3 -16 -24 -16 -196 l1 -193 140 -2 c78 -1 143 -4 146
-6 4 -2 6 -528 6 -1170 l0 -1167 405 5 c223 2 415 6 426 10 12 3 37 8 55 11
67 11 87 16 147 35 296 95 532 309 644 586 104 257 96 580 -19 809 -110 220
-358 416 -613 485 -118 32 -202 42 -368 46 -62 1 -115 5 -118 8 -5 5 -9 280
-5 335 1 9 133 12 624 12 l623 0 0 -1161 c-1 -638 2 -1165 5 -1171 7 -11 777
-5 844 6 185 32 375 112 511 214 177 134 301 322 361 550 21 80 25 122 26 237
2 166 -4 211 -44 328 -75 227 -245 411 -484 528 -162 79 -299 108 -535 114
-58 2 -111 4 -117 4 -10 1 -13 43 -13 176 l0 175 672 -2 672 -3 0 -1267 c0
-1141 1 -1268 15 -1269 45 -4 518 -4 528 -1 10 3 13 279 12 1269 0 696 2 1267
4 1269 2 2 76 4 164 5 l161 1 4 58 c1 33 1 121 -2 197 l-5 139 -2420 -1
c-1331 0 -2427 -1 -2437 -3z m1114 -1167 c230 -79 366 -257 374 -490 7 -209
-55 -362 -210 -518 -82 -83 -161 -129 -261 -153 -42 -10 -176 -11 -182 -1 -3
5 -6 271 -6 591 l0 581 54 12 c69 15 146 8 231 -22z m1739 20 c155 -30 318
-153 384 -290 45 -94 59 -173 52 -293 -8 -138 -49 -249 -131 -357 -129 -169
-258 -242 -434 -247 l-87 -3 -3 591 -2 592 47 10 c45 10 116 9 174 -3z"/>
</g>
</svg>
