<svg width="135" height="40" viewBox="0 0 135 40" fill="none" xmlns="http://www.w3.org/2000/svg">
<rect x="0.5" y="0.5" width="134" height="39" rx="4.5" fill="black"/>
<path d="M106.935 30H108.801V17.4984H106.935V30ZM123.742 22.002L121.603 27.4219H121.539L119.319 22.002H117.309L120.639 29.577L118.74 33.791H120.686L125.817 22.002H123.742ZM113.159 28.5801C112.549 28.5801 111.696 28.2742 111.696 27.5184C111.696 26.5535 112.758 26.1836 113.674 26.1836C114.494 26.1836 114.881 26.3602 115.379 26.6016C115.234 27.7598 114.237 28.5801 113.159 28.5801ZM113.385 21.7285C112.034 21.7285 110.635 22.3238 110.056 23.6426L111.712 24.334C112.066 23.6426 112.725 23.4176 113.417 23.4176C114.382 23.4176 115.363 23.9961 115.379 25.0258V25.1543C115.041 24.9613 114.317 24.6719 113.433 24.6719C111.647 24.6719 109.83 25.6527 109.83 27.4863C109.83 29.159 111.294 30.2367 112.934 30.2367C114.188 30.2367 114.881 29.6738 115.314 29.0141H115.379V29.9797H117.181V25.1863C117.181 22.9668 115.523 21.7285 113.385 21.7285ZM101.853 23.5238H99.1986V19.2387H101.853C103.248 19.2387 104.04 20.3934 104.04 21.3812C104.04 22.35 103.248 23.5238 101.853 23.5238ZM101.805 17.4984H97.3334V30H99.1986V25.2637H101.805C103.873 25.2637 105.906 23.7668 105.906 21.3812C105.906 18.9961 103.873 17.4984 101.805 17.4984ZM77.4232 28.5824C76.1341 28.5824 75.0552 27.5027 75.0552 26.0211C75.0552 24.5223 76.1341 23.4273 77.4232 23.4273C78.6959 23.4273 79.6947 24.5223 79.6947 26.0211C79.6947 27.5027 78.6959 28.5824 77.4232 28.5824ZM79.5658 22.702H79.5013C79.0826 22.2027 78.2767 21.7516 77.2623 21.7516C75.1353 21.7516 73.1861 23.6207 73.1861 26.0211C73.1861 28.4051 75.1353 30.2578 77.2623 30.2578C78.2767 30.2578 79.0826 29.8066 79.5013 29.2914H79.5658V29.9031C79.5658 31.5309 78.6959 32.4004 77.2943 32.4004C76.1509 32.4004 75.442 31.5789 75.1517 30.8863L73.5248 31.5629C73.9916 32.6902 75.2318 34.0762 77.2943 34.0762C79.4857 34.0762 81.3384 32.7871 81.3384 29.6453V22.0094H79.5658V22.702ZM82.6275 30H84.4955V17.4984H82.6275V30ZM87.2506 25.8758C87.2025 24.2324 88.524 23.3949 89.474 23.3949C90.2154 23.3949 90.8431 23.7656 91.0533 24.2969L87.2506 25.8758ZM93.0502 24.4578C92.6959 23.5078 91.6166 21.7516 89.4095 21.7516C87.2181 21.7516 85.3978 23.4754 85.3978 26.0047C85.3978 28.3891 87.2025 30.2578 89.6185 30.2578C91.5677 30.2578 92.6959 29.066 93.1634 28.373L91.7134 27.4062C91.2299 28.1152 90.5697 28.5824 89.6185 28.5824C88.6685 28.5824 87.9916 28.1473 87.5572 27.2934L93.2435 24.9414L93.0502 24.4578ZM47.7424 23.0566V24.8609H52.0599C51.931 25.8758 51.5927 26.6168 51.0771 27.1324C50.4486 27.7605 49.4658 28.4535 47.7424 28.4535C45.0841 28.4535 43.006 26.3109 43.006 23.6527C43.006 20.9945 45.0841 18.8516 47.7424 18.8516C49.1763 18.8516 50.2232 19.4156 50.9966 20.1406L52.2697 18.8676C51.19 17.8367 49.7564 17.0473 47.7424 17.0473C44.1009 17.0473 41.04 20.0117 41.04 23.6527C41.04 27.2934 44.1009 30.2578 47.7424 30.2578C49.7076 30.2578 51.19 29.6133 52.3498 28.4051C53.542 27.2129 53.9127 25.5375 53.9127 24.184C53.9127 23.7656 53.8802 23.3789 53.8158 23.0566H47.7424ZM58.8213 28.5824C57.5322 28.5824 56.4205 27.5191 56.4205 26.0047C56.4205 24.4742 57.5322 23.4273 58.8213 23.4273C60.1099 23.4273 61.2216 24.4742 61.2216 26.0047C61.2216 27.5191 60.1099 28.5824 58.8213 28.5824ZM58.8213 21.7516C56.4685 21.7516 54.5517 23.5398 54.5517 26.0047C54.5517 28.4535 56.4685 30.2578 58.8213 30.2578C61.1732 30.2578 63.0904 28.4535 63.0904 26.0047C63.0904 23.5398 61.1732 21.7516 58.8213 21.7516ZM68.1341 28.5824C66.8459 28.5824 65.7338 27.5191 65.7338 26.0047C65.7338 24.4742 66.8459 23.4273 68.1341 23.4273C69.4232 23.4273 70.5345 24.4742 70.5345 26.0047C70.5345 27.5191 69.4232 28.5824 68.1341 28.5824ZM68.1341 21.7516C65.7822 21.7516 63.8654 23.5398 63.8654 26.0047C63.8654 28.4535 65.7822 30.2578 68.1341 30.2578C70.4869 30.2578 72.4037 28.4535 72.4037 26.0047C72.4037 23.5398 70.4869 21.7516 68.1341 21.7516Z" fill="white"/>
<path d="M44.4771 13.2344C43.5806 13.2344 42.8094 12.9189 42.1877 12.2973C41.5656 11.6752 41.2505 10.8963 41.2505 9.99062C41.2505 9.08493 41.5658 8.30743 42.1877 7.68398C42.8094 7.06223 43.5806 6.74687 44.4771 6.74687C44.9339 6.74687 45.3602 6.82576 45.7675 6.99003C46.1751 7.15433 46.5085 7.38239 46.7711 7.68085L46.833 7.75136L46.1336 8.45058L46.0636 8.36464C45.8895 8.1507 45.6681 7.98449 45.3875 7.86367C45.1079 7.74315 44.8016 7.68749 44.4771 7.68749C43.8456 7.68749 43.3217 7.90194 42.8841 8.33788C42.884 8.33798 42.8838 8.33798 42.8837 8.33809C42.4561 8.78283 42.2412 9.32431 42.2412 9.99062C42.2412 10.6575 42.4564 11.199 42.8845 11.6439C43.3221 12.0797 43.846 12.2953 44.4771 12.2953C45.0552 12.2953 45.5333 12.1339 45.9091 11.8145H45.9093C46.2592 11.5171 46.4692 11.1153 46.5435 10.6031H44.3771V9.68125H47.4798L47.4931 9.76562C47.5185 9.92768 47.5365 10.0841 47.5365 10.2344C47.5365 11.0945 47.2742 11.7967 46.7597 12.3133C46.1789 12.929 45.4151 13.2344 44.4771 13.2344L44.4771 13.2344ZM71.4189 13.2344C70.521 13.2344 69.7589 12.9188 69.1451 12.2973C69.145 12.2972 69.145 12.2972 69.1449 12.2971C69.1448 12.297 69.1448 12.297 69.1447 12.2969C68.5301 11.6821 68.2251 10.903 68.2251 9.99061C68.2251 9.07822 68.5301 8.29915 69.1447 7.68436C69.1447 7.68429 69.1448 7.68426 69.1449 7.68416L69.1451 7.68396C69.7589 7.06236 70.521 6.74685 71.4189 6.74685C72.3151 6.74685 73.0775 7.06244 73.6912 7.69334C74.306 8.30803 74.6111 9.08562 74.6111 9.9906C74.6111 10.903 74.3062 11.6821 73.6916 12.2969L73.6914 12.2971C73.0772 12.919 72.3078 13.2344 71.4189 13.2344L71.4189 13.2344ZM48.4244 13.1V6.88124H48.5244H52.1384V7.82187H49.3978V9.52968H51.8697V10.4516H49.3978V12.1609H52.1384V13.1H48.4244ZM54.4115 13.1V7.82187H52.7302V6.88124H57.0662V7.82187H56.9662H55.3849V13.1H54.4115ZM59.8373 13.1V6.88124H60.8107V6.98124V13.1H59.8373ZM63.2611 13.1V7.82187H61.5798V6.88124H65.9158V7.82187H65.8158H64.2345V13.1H63.2611ZM75.4752 13.1V6.88124H76.5728L79.3664 11.3535L79.3423 10.5045V6.88124H80.3158V13.1H79.3525L76.4246 8.40175L76.4486 9.25019V9.25156V13.1H75.4752ZM71.4189 12.2953C72.0504 12.2953 72.5659 12.0799 72.9861 11.6447L72.9867 11.6439L72.9873 11.6433C73.4135 11.217 73.6221 10.6682 73.6221 9.99059C73.6221 9.31461 73.4134 8.76397 72.9873 8.33785L72.9867 8.33725L72.9861 8.33665C72.566 7.90152 72.0505 7.68743 71.4189 7.68743C70.7862 7.68743 70.2708 7.90115 69.8427 8.33626L69.8423 8.33666C69.424 8.77312 69.2158 9.3148 69.2158 9.99057C69.2158 10.668 69.4239 11.2079 69.8423 11.6445L69.8427 11.6449C70.2709 12.0801 70.7864 12.2953 71.4189 12.2953V12.2953Z" fill="white"/>
<path d="M20.7145 19.4232L10.068 30.7232C10.0684 30.7256 10.0692 30.7275 10.0696 30.7299C10.3961 31.9568 11.5168 32.8603 12.8469 32.8603C13.3786 32.8603 13.8778 32.7166 14.3059 32.4642L14.3399 32.4443L26.3239 25.5291L20.7145 19.4232Z" fill="#EA4335"/>
<path d="M31.4856 17.499L31.4754 17.492L26.3016 14.4927L20.4727 19.6795L26.3219 25.5279L31.4684 22.5584C32.3707 22.0713 32.9832 21.1201 32.9832 20.0232C32.9832 18.9342 32.3789 17.9877 31.4856 17.499Z" fill="#FBBC04"/>
<path d="M10.0676 9.27633C10.0036 9.51233 9.97 9.75953 9.97 10.0162V29.9838C9.97 30.2401 10.0032 30.4881 10.068 30.7233L21.0809 19.7123L10.0676 9.27633Z" fill="#4285F4"/>
<path d="M20.793 19.9999L26.3036 14.4909L14.3332 7.55066C13.8981 7.29006 13.3903 7.13966 12.8469 7.13966C11.5168 7.13966 10.3946 8.04476 10.068 9.27326C10.0676 9.27446 10.0676 9.27526 10.0676 9.27636L20.793 19.9999Z" fill="#34A853"/>
<rect x="0.5" y="0.5" width="134" height="39" rx="4.5" stroke="#A6A6A6"/>
</svg>
